<?xml version="1.0" encoding="UTF-8"?>
<svg version="1.1" xmlns="http://www.w3.org/2000/svg" width="1536" height="701">
<path d="M0 0 C506.88 0 1013.76 0 1536 0 C1536 231.33 1536 462.66 1536 701 C1029.12 701 522.24 701 0 701 C0 469.67 0 238.34 0 0 Z " fill="#1E1E1F" transform="translate(0,0)"/>
<path d="M0 0 C1.13294927 -0.00445784 2.26589855 -0.00891569 3.43317962 -0.01350862 C5.28538411 -0.01323207 5.28538411 -0.01323207 7.17500687 -0.01294994 C8.49458775 -0.01662663 9.81416863 -0.02030332 11.17373681 -0.02409142 C14.83094269 -0.03408018 18.48813216 -0.03782319 22.14534974 -0.04048073 C26.09246275 -0.04439324 30.03956288 -0.05397108 33.98666763 -0.0626936 C43.51789132 -0.08243412 53.04911603 -0.09252239 62.58035505 -0.10142139 C67.07486055 -0.10580933 71.56936489 -0.11117493 76.06386948 -0.11641026 C91.01615402 -0.13342218 105.96843785 -0.14791376 120.92073059 -0.155159 C124.79888536 -0.15706873 128.67704011 -0.15898908 132.55519485 -0.16094494 C133.51903006 -0.16142868 134.48286526 -0.16191242 135.47590759 -0.16241082 C151.07036441 -0.17070142 166.66474427 -0.1960221 182.25916752 -0.22852562 C198.28980184 -0.26166428 214.32039715 -0.279614 230.35106587 -0.28280324 C239.34340007 -0.28496233 248.33562214 -0.29362236 257.32792282 -0.31926441 C264.99051375 -0.34106483 272.65296531 -0.34897632 280.31558374 -0.33929763 C284.21862793 -0.33477943 288.12138518 -0.33649252 292.02438927 -0.35605907 C310.7252528 -0.44466205 328.75949066 -0.26999719 346.1738472 7.44672108 C347.21810867 7.89446888 347.21810867 7.89446888 348.28346634 8.35126209 C373.10408646 19.31209851 392.09196156 40.06766707 402.37990189 64.91254139 C406.36821773 75.25851465 409.34596983 85.89870118 409.38161087 97.03485584 C409.38664879 98.02897228 409.38664879 98.02897228 409.39178848 99.04317188 C409.40123672 101.22067647 409.403239 103.39810355 409.40431595 105.57562733 C409.40753457 107.10532633 409.41089909 108.63502502 409.41440201 110.1647234 C409.42037929 113.36981385 409.42224353 116.5748774 409.42164993 119.77997303 C409.4215488 123.85231668 409.43515605 127.92448404 409.45242214 131.99678612 C409.46364157 135.15843437 409.46556606 138.32004147 409.46504021 141.48170757 C409.46620714 142.98094695 409.47055501 144.48018786 409.47837257 145.97940731 C409.6233851 176.6809971 400.09894615 203.1485749 378.4863472 225.32172108 C370.42368693 233.28181928 361.27506322 239.28934888 351.2363472 244.44672108 C350.63274368 244.76028553 350.02914017 245.07384998 349.40724564 245.39691639 C343.27844289 248.40817785 336.77741173 250.23160389 330.2363472 252.13422108 C330.22232864 253.91252308 330.22232864 253.91252308 330.20802689 255.72675037 C330.16808721 260.13468153 330.10231738 264.54191766 330.02882767 268.94940662 C330.00064109 270.85524013 329.97941504 272.76119002 329.9653511 274.66718006 C329.94388937 277.41070514 329.89722355 280.15283421 329.8457222 282.89593983 C329.84449356 283.74508457 329.84326492 284.59422932 329.84199905 285.46910572 C329.71516334 290.617839 329.10885395 293.39337955 325.2363472 297.13422108 C321.67941611 299.7099298 318.51788624 299.81383045 314.2363472 299.13422108 C310.9127437 297.23174459 307.96424298 294.90959901 304.97658157 292.52093983 C303.05175048 290.9871238 301.10688824 289.48138225 299.1582222 287.97797108 C293.70171468 283.76207308 288.27316405 279.51064487 282.84279251 275.2611742 C280.49596906 273.42570211 278.14744037 271.59242783 275.7988472 269.75922108 C275.10267288 269.21314198 274.40649857 268.66706287 273.68922806 268.10443592 C272.32648641 267.04087181 270.94992734 265.99473589 269.55907345 264.96820831 C267.2363472 263.13422108 267.2363472 263.13422108 265.28409672 261.0904026 C255.73733739 252.17031686 243.40992288 254.05456116 231.15895462 254.1818285 C228.59879339 254.1791316 226.03863381 254.17287371 223.47848892 254.16333485 C217.9786259 254.15049779 212.47966104 254.16175987 206.97989845 254.19488049 C199.01329137 254.24254467 191.04721298 254.24280226 183.08049694 254.23131327 C170.13258155 254.21363517 157.18494096 254.22930489 144.23707962 254.26825428 C131.70029512 254.30585465 119.16356448 254.33528233 106.62672806 254.34833241 C105.85494082 254.34914341 105.08315358 254.34995441 104.28797885 254.35078999 C95.84864242 254.35927735 87.40931237 254.36376403 78.96997166 254.36287117 C77.8549259 254.36276001 77.8549259 254.36276001 76.71735397 254.36264661 C73.74422106 254.36227913 70.77108833 254.36184127 67.79795555 254.36086539 C59.12296849 254.3580779 50.44821431 254.36759546 41.77328382 254.4000471 C35.6807824 254.42241566 29.58835124 254.43045404 23.49580574 254.43359852 C21.00703655 254.43756236 18.51826908 254.44670154 16.02954102 254.4615469 C-8.06040573 254.60098513 -8.06040573 254.60098513 -19.7636528 251.13422108 C-20.47208234 250.93688468 -21.18051188 250.73954828 -21.91040897 250.53623199 C-47.76889743 242.85139492 -68.94435102 224.67733399 -81.9199028 201.31781483 C-86.73358816 192.30519323 -90.27677502 183.05208669 -92.7636528 173.13422108 C-92.93660873 172.4703841 -93.10956467 171.80654713 -93.28776169 171.12259388 C-95.1149876 163.21642318 -95.09153272 155.32633985 -95.0995903 147.25922108 C-95.10603779 145.72479606 -95.1127675 144.19037221 -95.11976242 142.65594959 C-95.1316798 139.44864532 -95.13544934 136.24144824 -95.13425827 133.03412342 C-95.13409623 129.78161731 -95.14790915 126.52967745 -95.1752739 123.27728748 C-95.44507095 90.74803477 -91.77575789 60.13810033 -68.7636528 35.13422108 C-68.29330612 34.61617908 -67.82295944 34.09813709 -67.33835983 33.56439686 C-50.41795319 15.11025313 -25.74863522 0.04722261 0 0 Z " fill="#ECECEC" transform="translate(601.7636528015137,93.86577892303467)"/>
<path d="M0 0 C3.32429899 1.6621495 4.87230799 2.6235408 7.36627197 5.12576294 C8.01124634 5.76798798 8.6562207 6.41021301 9.32073975 7.07189941 C10.01701477 7.77536499 10.71328979 8.47883057 11.43066406 9.20361328 C12.17251953 9.9451767 12.914375 10.68674011 13.67871094 11.45077515 C16.12911939 13.90257671 18.572368 16.36138605 21.015625 18.8203125 C22.71341057 20.52182825 24.41163829 22.22290292 26.11029053 23.92355347 C30.57974916 28.40064806 35.04316914 32.88371638 39.50537109 37.36804199 C44.05985468 41.94298469 48.62000567 46.51227048 53.1796875 51.08203125 C62.12535692 60.04914995 71.0648529 69.02239708 80 78 C75.7237549 83.10841702 71.24775843 87.89109048 66.52587891 92.58764648 C65.44191833 93.6718261 65.44191833 93.6718261 64.33605957 94.77790833 C61.96859215 97.14468416 59.59761225 99.50790719 57.2265625 101.87109375 C55.57582093 103.51996846 53.92530133 105.16906542 52.2749939 106.81837463 C47.94701522 111.14254924 43.61604101 115.4637113 39.28442383 119.78424072 C34.85836624 124.2000387 30.43516519 128.618696 26.01171875 133.03710938 C17.3439301 141.69419795 8.67297231 150.34810481 0 159 C-0.61262695 158.6920752 -1.22525391 158.38415039 -1.85644531 158.06689453 C-9.25948307 154.38223907 -15.75336646 151.38308741 -24.09765625 153.54296875 C-30.21088599 155.61118292 -35.09437066 158.76819992 -38.28515625 164.5859375 C-39.92430075 170.1214091 -39.26501419 176.28011035 -39 182 C-39.845625 181.95359375 -40.69125 181.9071875 -41.5625 181.859375 C-49.78084354 181.59788225 -55.57705265 181.9134737 -61.74609375 187.61328125 C-64.96115059 191.09047701 -67.17946072 194.2591064 -68 199 C-67.85160231 202.69459079 -67.48256646 206.33510335 -67 210 C-67.68964844 209.95359375 -68.37929688 209.9071875 -69.08984375 209.859375 C-77.49640426 209.53648927 -83.34265889 210.97871821 -89.875 216.375 C-95.04274653 222.75868689 -95.62924936 227.98917165 -95 236 C-94.70375891 237.34206189 -94.38410944 238.68039823 -94 240 C-94.9178125 239.95359375 -95.835625 239.9071875 -96.78125 239.859375 C-107.08381096 239.48806436 -107.08381096 239.48806436 -116 244 C-120.22457392 248.08530225 -122.92038536 251.26444081 -123.09765625 257.35546875 C-123.08605469 258.62003906 -123.07445312 259.88460938 -123.0625 261.1875 C-123.05347656 262.45980469 -123.04445313 263.73210937 -123.03515625 265.04296875 C-123.02355469 266.01878906 -123.01195312 266.99460937 -123 268 C-127.03144242 265.92979984 -129.10073376 264.14330374 -131 260 C-131.5390625 257.16796875 -131.5390625 257.16796875 -131.625 254.1875 C-131.67914062 253.21167969 -131.73328125 252.23585938 -131.7890625 251.23046875 C-129.77349728 242.97862502 -120.2887975 236.18287987 -114.41796875 230.390625 C-112.58124928 228.56653808 -110.74466464 226.74231538 -108.90820312 224.91796875 C-106.03574391 222.06928741 -103.16074541 219.2231879 -100.28344727 216.37939453 C-97.48971029 213.61757229 -94.70391805 210.84780301 -91.91796875 208.078125 C-91.05342575 207.22704163 -90.18888275 206.37595825 -89.29814148 205.49908447 C-88.50003555 204.7043573 -87.70192963 203.90963013 -86.87963867 203.09082031 C-86.17683273 202.3954718 -85.47402679 201.70012329 -84.74992371 200.98370361 C-83.05756196 199.06525191 -82.01434517 197.33570113 -81 195 C-85.00764896 195.54342821 -86.83334456 197.46946516 -89.62915039 200.28857422 C-90.54011978 201.1997702 -91.45108917 202.11096619 -92.3896637 203.04977417 C-93.37581944 204.05125616 -94.36181304 205.05289784 -95.34765625 206.0546875 C-96.36542642 207.07805693 -97.38386398 208.10076303 -98.40293884 209.12283325 C-101.08319337 211.81453359 -103.75432359 214.51511429 -106.42364502 217.21765137 C-109.13704794 219.96167367 -111.85889005 222.6972955 -114.58007812 225.43359375 C-119.36673398 230.24895721 -124.14590857 235.07162039 -128.91981506 239.89962769 C-129.94950661 240.93931198 -129.94950661 240.93931198 -131 242 C-131.54832993 242.56478058 -132.09665985 243.12956116 -132.66160583 243.7114563 C-135.54179252 246.48436618 -138.44522419 247.30605656 -142.375 247.375 C-146.96193217 247.25448947 -149.50535186 246.08829371 -153 243 C-156.45527856 238.984406 -157.54674227 235.55097112 -158.21484375 230.44140625 C-157.66838307 224.23162582 -154.49462213 219.99745295 -150.17724609 215.75488281 C-149.70048935 215.28075455 -149.2237326 214.80662628 -148.73252869 214.31813049 C-147.17186768 212.77033677 -145.59775298 211.2370166 -144.0234375 209.703125 C-142.93051032 208.62275372 -141.83861705 207.54133561 -140.74771118 206.45892334 C-137.88615473 203.62386161 -135.0136499 200.80018438 -132.13775635 197.97967529 C-127.52563504 193.45410811 -122.92717362 188.91475812 -118.33498001 184.36898041 C-116.73040863 182.78484811 -115.11918838 181.20771523 -113.50717163 179.63116455 C-112.52587482 178.66352043 -111.54479403 177.69565718 -110.56396484 176.72753906 C-109.70475433 175.88483459 -108.84554382 175.04213013 -107.96029663 174.17388916 C-105.80132465 172.07142215 -105.80132465 172.07142215 -105 169 C-109.34706557 170.40764176 -111.82662185 172.45647435 -115.03393555 175.67749023 C-115.50937805 176.15088837 -115.98482056 176.6242865 -116.47467041 177.11203003 C-118.0360364 178.67040088 -119.58642448 180.23921446 -121.13671875 181.80859375 C-122.2227889 182.89772368 -123.3094527 183.98626194 -124.39668274 185.07423401 C-126.66985998 187.35200627 -128.93804763 189.63459039 -131.20239258 191.92114258 C-134.10419007 194.85125526 -137.01462495 197.77259097 -139.92837811 200.6908102 C-142.17049963 202.937089 -144.40977595 205.18618487 -146.64801979 207.43632698 C-147.72046484 208.5144661 -148.79337749 209.59214029 -149.86676598 210.66934013 C-151.36522725 212.17467953 -152.86025319 213.6833446 -154.35424805 215.19311523 C-155.20520554 216.05090073 -156.05616302 216.90868622 -156.9329071 217.79246521 C-159.13114415 220.01925431 -159.13114415 220.01925431 -161 223 C-165.38919384 224.6037439 -169.35124456 225.66410792 -174 225 C-179.03208227 222.63540988 -182.91651002 219.68690477 -186 215 C-187.75902999 209.72291004 -187.5857074 205.57228123 -185.67480469 200.44262695 C-182.70077277 194.7963298 -178.03173217 190.57094475 -173.50247955 186.17125511 C-171.86296362 184.57859795 -170.2362215 182.97379719 -168.61199951 181.36555481 C-165.75321664 178.53886019 -162.88389151 175.72315686 -160.01080322 172.91101074 C-155.39689299 168.39481963 -150.79174022 163.86995197 -146.20116425 159.33004189 C-144.59651474 157.74859261 -142.98275295 156.17686879 -141.3682251 154.60551453 C-140.38993523 153.64131034 -139.41202892 152.67671679 -138.43457031 151.71166992 C-137.5761554 150.87198166 -136.71774048 150.0322934 -135.83331299 149.16716003 C-133.67707382 147.09136793 -133.67707382 147.09136793 -134 144 C-137.64311107 145.53362593 -139.94145869 147.71058717 -142.70507812 150.50976562 C-143.63284058 151.44413452 -144.56060303 152.37850342 -145.51647949 153.34118652 C-146.00764755 153.8405925 -146.49881561 154.33999847 -147.00486755 154.85453796 C-148.54737565 156.42264325 -150.09610732 157.98435377 -151.64660645 159.54455566 C-154.93670553 162.85747941 -158.21890606 166.17816053 -161.5 169.5 C-165.30292529 173.35015107 -169.10903258 177.19703852 -172.9236908 181.03556824 C-174.44778641 182.57260836 -175.96572207 184.11555839 -177.48352051 185.65881348 C-178.41128296 186.59318237 -179.33904541 187.52755127 -180.29492188 188.49023438 C-181.10892456 189.31471069 -181.92292725 190.13918701 -182.76159668 190.98864746 C-186.92629928 194.73090654 -190.21125981 195.46171231 -195.6875 195.30859375 C-200.17162029 194.71020608 -203.34968361 192.88468085 -206.3203125 189.4921875 C-209.38764009 184.88047119 -209.77118699 180.40794877 -209 175 C-205.2760443 162.51379559 -191.62310339 151.92347544 -182.7980957 142.78881836 C-181.06078621 140.9744973 -179.33988169 139.14432118 -177.63598633 137.29858398 C-161.88944268 120.27385758 -161.88944268 120.27385758 -152.47993469 119.40379333 C-148.95414898 119.3724849 -145.51238729 119.69154927 -142 120 C-127.73744242 117.87004505 -118.53212765 108.92147607 -110.25 97.75 C-109.51265625 96.73421875 -108.7753125 95.7184375 -108.015625 94.671875 C-106.43755513 92.58001494 -104.91640244 90.77085289 -103 89 C-102.47792969 89.44730469 -101.95585938 89.89460938 -101.41796875 90.35546875 C-87.98413155 101.3895662 -73.84750787 104.23540187 -56.875 104.375 C-55.23035767 104.39590698 -55.23035767 104.39590698 -53.55249023 104.41723633 C-43.7906592 104.36073321 -34.00421238 102.92311716 -26 97 C-22.2662684 92.99075131 -20.65263837 89.09040525 -20.3125 83.625 C-20.86435908 73.0961097 -28.80664783 65.04420771 -36 58 C-38.59118021 55.78322494 -41.22376689 53.66322654 -43.93359375 51.59375 C-46 50 -46 50 -48 48 C-32.16 32.16 -16.32 16.32 0 0 Z " fill="#ECECEC" transform="translate(746,386)"/>
<path d="M0 0 C7.38925052 4.14202129 11.69613303 11.37934996 16.03125 18.4140625 C17.443495 20.7002788 18.87659828 22.96045635 20.34375 25.2109375 C20.75318848 25.83983887 21.16262695 26.46874023 21.58447266 27.11669922 C22.38953482 28.35134127 23.19643744 29.5847856 24.00537109 30.81689453 C27.89182353 36.80957547 28.63097505 41.4706847 27.9375 48.5 C26.2128547 55.57104571 20.85671225 59.3832535 15.578125 63.984375 C10.9593209 68.38453749 8.47485413 72.76437896 7.25 79 C11.44831195 100.37322445 42.21317548 122.56813122 59.125 134.125 C63.73298734 137.1734964 67.3705089 138.04757289 72.9375 137.5 C78.29228161 135.32253694 82.04139641 131.47755281 86 127.375 C90.92524428 122.31419854 94.12531156 120.17273914 101.125 118.9375 C113.45295668 120.75637885 124.17549319 130.30021495 133.9375 137.5 C134.66654541 138.03270508 135.39559082 138.56541016 136.14672852 139.11425781 C136.85756592 139.63858398 137.56840332 140.16291016 138.30078125 140.703125 C138.94055908 141.17395508 139.58033691 141.64478516 140.23950195 142.12988281 C143.61714761 144.85531019 146.67488439 148.1838164 147.17578125 152.6015625 C147.4508621 161.95431155 144.2454551 167.76248492 137.97265625 174.5546875 C127.06750793 184.97841852 113.94001304 189.91773523 99.01171875 189.77734375 C59.71181193 187.84739475 24.60265162 160.01489227 -1.0625 132.5 C-4.21451648 128.94127172 -7.15490447 125.25990578 -10.0625 121.5 C-11.07887165 120.22351588 -12.09584176 118.94750814 -13.11328125 117.671875 C-31.56950469 94.31994161 -45.23556455 69.26783465 -43.0625 38.5 C-41.22276727 24.95709353 -35.03630563 14.75683878 -25.0625 5.5 C-17.35266543 -0.00862093 -9.32077616 -4.11637391 0 0 Z " fill="#F1B829" transform="translate(317.0625,51.5)"/>
<path d="M0 0 C5.33312205 0.18634855 10.66174951 0.23598467 15.99765968 0.28112411 C22.40043167 0.34168699 28.80086708 0.47896005 35.20220947 0.62329102 C36.40652241 0.6443969 37.61083534 0.66550278 38.85164261 0.68724823 C61.80349637 1.18559744 61.80349637 1.18559744 68.75544739 8.4385376 C69.28186325 9.08216248 69.80827911 9.72578735 70.35064697 10.38891602 C71.33530856 11.29730012 72.32997871 12.19508691 73.33892822 13.07641602 C84.89136438 24.5706046 84.89136438 24.5706046 86.35064697 32.51391602 C86.35064697 38.30149916 84.71887929 40.98810674 80.72564697 45.07641602 C70.20594955 53.23508409 54.39721814 52.19555159 41.88970947 51.08032227 C30.73072023 49.42551153 20.18294455 45.5651578 11.35064697 38.38891602 C10.54627197 37.04120117 10.54627197 37.04120117 9.72564697 35.66625977 C9.27189697 34.91473633 8.81814697 34.16321289 8.35064697 33.38891602 C7.36064697 33.38891602 6.37064697 33.38891602 5.35064697 33.38891602 C3.91205815 35.42615327 2.66039749 37.42603253 1.41314697 39.57641602 C-5.93124421 51.55718479 -15.02581553 63.16080766 -29.21185303 66.70141602 C-32.38340692 67.25765578 -35.02235536 67.3568215 -38.24859619 67.07922363 C-44.18788934 66.6049488 -48.69155738 66.26580363 -53.96038818 69.28833008 C-57.17465212 72.06939213 -60.05489758 74.98675009 -62.93060303 78.10766602 C-64.00276194 79.209738 -65.07856111 80.30827898 -66.15777588 81.40344238 C-68.9631937 84.26940907 -71.71719138 87.18003939 -74.46252441 90.10345459 C-77.28254665 93.08837012 -80.1495161 96.0274514 -83.01263428 98.97094727 C-88.60463702 104.73357806 -94.14305273 110.54434471 -99.64935303 116.38891602 C-100.92043771 115.44003512 -102.1909072 114.49033012 -103.46112061 113.5402832 C-104.16867996 113.01150574 -104.87623932 112.48272827 -105.60523987 111.93792725 C-114.42425091 105.25495713 -122.43825406 98.64270817 -124.11419678 87.22094727 C-124.51991258 78.78007943 -122.82047758 72.26910826 -117.2401123 65.7401123 C-113.08949846 61.24344318 -108.67916776 57.00894825 -104.27435303 52.76391602 C-102.30817761 50.84813051 -100.34569189 48.92868014 -98.38552856 47.00674438 C-97.17315556 45.82024633 -95.956844 44.63775242 -94.73568726 43.46029663 C-88.94883839 37.83982858 -83.78261643 32.04957055 -79.19780731 25.39535713 C-58.8252157 -3.42763667 -32.74540182 -1.34890812 0 0 Z " fill="#EBEBEB" transform="translate(635.6493530273438,435.611083984375)"/>
<path d="M0 0 C0.89102417 -0.00938095 1.78204834 -0.0187619 2.70007324 -0.02842712 C4.13921082 -0.01157616 4.13921082 -0.01157616 5.60742188 0.00561523 C6.59488403 0.00416 7.58234619 0.00270477 8.59973145 0.00120544 C10.68777415 0.00286567 12.77582893 0.01444064 14.86376953 0.03515625 C18.06400409 0.06409894 21.26258168 0.05577002 24.46289062 0.04272461 C26.49024245 0.04896221 28.51758902 0.05735332 30.54492188 0.06811523 C31.50434692 0.0651796 32.46377197 0.06224396 33.45227051 0.05921936 C34.34329468 0.07190353 35.23431885 0.08458771 36.15234375 0.09765625 C36.93605347 0.10305923 37.71976318 0.10846222 38.52722168 0.11402893 C41.25148996 0.62948532 41.94477147 1.24899968 43.57617188 3.50170898 C43.8750467 5.99837696 43.98968226 8.24728504 43.97058105 10.74497986 C43.97971771 11.85940117 43.97971771 11.85940117 43.98903894 12.99633604 C44.00572629 15.49299141 44.00088511 17.98913997 43.99609375 20.48583984 C44.00343076 22.27287834 44.01201591 24.05991209 44.02175903 25.84693909 C44.0440223 30.70642095 44.04690332 35.56573349 44.04501152 40.42525935 C44.04489204 44.47861863 44.05344682 48.53194173 44.06178904 52.58529097 C44.08104035 62.14591501 44.0839006 71.70645173 44.07714844 81.26708984 C44.07050557 91.13800558 44.09337794 101.00854783 44.13046217 110.8793878 C44.16112453 119.34740323 44.17252298 127.81529831 44.16862535 136.28336817 C44.16655431 141.34396864 44.17209178 146.40427854 44.19651794 151.46482658 C44.21872549 156.22311837 44.21695746 160.98080151 44.19659042 165.73909569 C44.19316974 167.48704752 44.19831482 169.23503984 44.21257401 170.98293686 C44.23067951 173.36649226 44.21808522 175.7479636 44.19763184 178.13145447 C44.21640861 179.17313677 44.21640861 179.17313677 44.23556471 180.23586315 C44.16749068 183.9268754 43.81071029 185.26494683 41.17008972 187.93060398 C38.56906328 189.50601457 37.3097698 190.00575613 34.32421875 190.01928711 C33.51988403 190.03189575 32.71554932 190.04450439 31.88684082 190.05749512 C31.03150757 190.04939819 30.17617432 190.04130127 29.29492188 190.03295898 C28.40381714 190.03678589 27.5127124 190.04061279 26.59460449 190.04455566 C24.71523912 190.04727115 22.83583573 190.03993539 20.95654297 190.02319336 C18.08540314 190.00177784 15.21676544 190.02300659 12.34570312 190.04858398 C10.51627054 190.04594064 8.6868395 190.04081553 6.85742188 190.03295898 C6.00208862 190.04105591 5.14675537 190.04915283 4.26550293 190.05749512 C3.05900085 190.03858215 3.05900085 190.03858215 1.828125 190.01928711 C1.12594849 190.01610474 0.42377197 190.01292236 -0.29968262 190.00964355 C-3.5178182 189.2401095 -5.09999645 187.84487583 -7.42382812 185.50170898 C-7.92415273 182.84791783 -8.09340078 180.82772695 -8.04528809 178.17614746 C-8.05167691 177.43642905 -8.05806573 176.69671063 -8.06464815 175.93457651 C-8.07991602 173.45445137 -8.05942678 170.97591925 -8.0390625 168.49584961 C-8.04256318 166.71851573 -8.04822117 164.94118497 -8.05587769 163.16386414 C-8.07014297 158.33526649 -8.05304713 153.50723711 -8.02959251 148.67869377 C-8.00950841 143.62901886 -8.0153618 138.57936811 -8.0177002 133.52966309 C-8.0176466 125.04905812 -7.99787387 116.56867575 -7.96582031 108.08813477 C-7.92892638 98.27918685 -7.92014448 88.47053062 -7.92711782 78.66152239 C-7.93341999 69.2311105 -7.92267383 59.80079879 -7.90315247 50.3704071 C-7.8949712 46.35453363 -7.89227026 42.33871131 -7.8938446 38.3228302 C-7.89472264 33.59497893 -7.88052912 28.86740546 -7.85461807 24.13962746 C-7.84744726 22.40298115 -7.84537704 20.66630531 -7.84873581 18.92964745 C-7.8524421 16.56188566 -7.83773352 14.19493843 -7.8182373 11.82727051 C-7.82356523 11.13738871 -7.82889316 10.44750691 -7.83438253 9.73671961 C-7.75050954 3.84683608 -6.3066418 0.00133718 0 0 Z " fill="#727173" transform="translate(1154.423828125,418.498291015625)"/>
<path d="M0 0 C1.09608902 0.00464581 1.09608902 0.00464581 2.21432126 0.00938547 C3.37646356 0.0025888 3.37646356 0.0025888 4.56208348 -0.00434518 C7.17230683 -0.01706043 9.78232343 -0.01536425 12.39257443 -0.01371634 C14.25827949 -0.01969717 16.12398207 -0.02650168 17.98968136 -0.03407156 C23.0681951 -0.05178458 28.1466415 -0.05642918 33.22518313 -0.05770314 C37.45991307 -0.05959883 41.69462721 -0.06695259 45.92935109 -0.07404733 C55.91807687 -0.0903492 65.90676657 -0.09521466 75.89550412 -0.09379447 C86.20997367 -0.0925927 96.52423409 -0.11369738 106.8386507 -0.14528179 C115.68455024 -0.17140718 124.53038133 -0.18216333 133.37631917 -0.18088365 C138.66381377 -0.18037289 143.95112263 -0.18611845 149.23857892 -0.20723975 C154.21099502 -0.22655916 159.18304703 -0.22678989 164.15547574 -0.21220648 C165.98244264 -0.2101094 167.80943195 -0.21487249 169.63636029 -0.2269274 C172.12697216 -0.24229946 174.61631601 -0.23312603 177.10689938 -0.21766531 C177.83316395 -0.22795244 178.55942852 -0.23823957 179.30770111 -0.24883842 C182.83581415 -0.20030222 184.49536484 0.0375049 187.26763737 2.30771577 C187.76922305 2.9575172 188.27080872 3.60731863 188.78759396 4.276811 C187.48877784 7.193773 186.19968992 9.06327611 183.76806271 11.12446725 C183.1644592 11.64170358 182.56085568 12.15893991 181.93896115 12.69185007 C181.29088498 13.23551218 180.6428088 13.77917428 179.97509396 14.339311 C178.97010861 15.19540964 178.97010861 15.19540964 177.94482052 16.06880319 C175.8973144 17.81068251 173.84256824 19.54375437 171.78759396 21.276811 C170.6215709 22.26952768 169.456166 23.26297107 168.29150021 24.25727975 C162.531627 29.16621401 156.71490116 34.00227278 150.84618771 38.78071725 C147.81396759 41.2552877 144.79277745 43.74271126 141.77416623 46.23384225 C139.58280378 48.04107031 137.38849853 49.8446767 135.19384396 51.64790475 C132.32906373 54.00264818 129.47605738 56.37053509 126.63134396 58.74946725 C118.38410097 65.60711581 110.01729718 71.802561 100.78759396 77.276811 C99.98321896 77.76278757 99.17884396 78.24876413 98.35009396 78.74946725 C93.98828461 81.18646301 91.57758682 81.44275657 86.78759396 80.276811 C70.12774988 72.8060289 55.76992613 58.76216031 41.78759396 47.276811 C39.8502504 45.69328626 37.91276772 44.10993169 35.97509396 42.526811 C35.11013302 41.81782663 34.24517209 41.10884225 33.35400021 40.3783735 C31.61414191 38.95364936 29.8718738 37.53186391 28.12743771 36.1127485 C22.63277479 31.63795827 17.1797122 27.11877798 11.79101193 22.51704538 C8.92755914 20.0731555 6.04281398 17.66588866 3.10790646 15.308061 C2.51026486 14.82127878 1.91262326 14.33449655 1.2968713 13.83296335 C0.15166449 12.90135048 -1.00135021 11.97922802 -2.16308963 11.06831491 C-4.62344499 9.05013262 -6.09459555 7.59938734 -7.19678104 4.5814985 C-7.20193729 3.82095163 -7.20709354 3.06040475 -7.21240604 2.276811 C-4.74904176 -0.18655328 -3.36222832 0.03268607 0 0 Z " fill="#F2B82A" transform="translate(1057.212406039238,98.723188996315)"/>
<path d="M0 0 C4.68379438 2.44834706 8.79384725 5.29254433 13 8.5 C21.96380291 15.65130254 21.96380291 15.65130254 33 17 C35.80086723 15.92559232 38.30743681 14.47970918 40.875 12.9375 C41.57173828 12.53281494 42.26847656 12.12812988 42.98632812 11.71118164 C48.32331919 8.55304821 53.3022114 5.05836738 58 1 C61.06556857 2.36578915 63.14958638 3.91158026 65.49609375 6.30078125 C66.13740234 6.94853516 66.77871094 7.59628906 67.43945312 8.26367188 C68.42848633 9.2778418 68.42848633 9.2778418 69.4375 10.3125 C70.09298828 10.97701172 70.74847656 11.64152344 71.42382812 12.32617188 C72.70424106 13.62456453 73.98278137 14.92480702 75.25927734 16.22705078 C77.49095767 18.50004693 79.74365947 20.75150761 82 23 C96.66666667 37.66666667 111.33333333 52.33333333 126 67 C125 70 125 70 123 71 C120.5232968 71.09763546 118.0747379 71.13457141 115.59777832 71.12698364 C114.82568921 71.12854363 114.05360009 71.13010362 113.25811434 71.13171089 C110.65708316 71.13571662 108.05610979 71.13253288 105.45507812 71.12939453 C103.59598252 71.13074876 101.73688718 71.13252882 99.87779236 71.13470459 C94.81801385 71.13927634 89.75825567 71.13749042 84.69847679 71.1343255 C79.41295694 71.13180058 74.12743887 71.13413981 68.84191895 71.13571167 C59.96443366 71.13753298 51.08695668 71.13512807 42.20947266 71.13037109 C31.93367042 71.12492855 21.65788803 71.12669123 11.38208628 71.1321975 C2.57274407 71.13672973 -6.23659216 71.13737863 -15.04593515 71.13475883 C-20.31317374 71.13319667 -25.580403 71.13300064 -30.84764099 71.13629532 C-35.79860301 71.13917563 -40.74953935 71.13719537 -45.70049858 71.13140106 C-47.52184952 71.13007433 -49.3432026 71.13046612 -51.16455269 71.13266373 C-53.64232413 71.1353786 -56.12001225 71.13198992 -58.59777832 71.12698364 C-59.69007728 71.13032973 -59.69007728 71.13032973 -60.80444288 71.13374341 C-65.77169984 71.11415008 -65.77169984 71.11415008 -68 70 C-67.58891866 65.50869306 -64.42211857 63.01541379 -61.38208008 60.02563477 C-60.796604 59.43811432 -60.21112793 58.85059387 -59.60791016 58.24526978 C-57.66896218 56.30331206 -55.71947527 54.37231753 -53.76953125 52.44140625 C-52.41711639 51.09205012 -51.06529248 49.74210147 -49.71403503 48.3915863 C-46.8779362 45.56009255 -44.03699635 42.73358172 -41.19213867 39.91088867 C-37.55499956 36.30195073 -33.92651586 32.68446949 -30.30121326 29.06364536 C-27.5075065 26.27410858 -24.71097998 23.48741397 -21.91342735 20.70173454 C-20.57541328 19.36939875 -19.23785398 18.03660609 -17.90076637 16.70334053 C-16.02471153 14.83420612 -14.14532892 12.9684849 -12.26489258 11.10375977 C-11.71764023 10.55762527 -11.17038788 10.01149078 -10.60655212 9.44880676 C-7.21631032 6.09578862 -3.70179922 3.00651138 0 0 Z " fill="#F2B929" transform="translate(1118,166)"/>
<path d="M0 0 C6.50869101 5.36717181 6.50869101 5.36717181 9.125 8.5625 C12.24639335 12.23187129 15.57337996 15.62038507 19 19 C22.92095313 22.87224191 26.65406946 26.80795483 30.2265625 31.0078125 C33.1835247 34.32951013 36.39187367 37.39931252 39.5546875 40.5234375 C42.8685899 43.87969009 45.94694597 47.40810514 49 51 C44.06658986 57.00614309 38.6470815 62.47137257 33.13458443 67.94058037 C31.4704951 69.59174541 29.80969042 71.24615443 28.14964294 72.90138245 C24.02754281 77.01020996 19.89999728 81.11355297 15.77258301 85.21704102 C12.2766567 88.69311905 8.78286662 92.17131862 5.29179192 95.65226936 C3.66823992 97.26941528 2.04166925 98.88348027 0.41493225 100.49742126 C-15.42270571 115.61250934 -15.42270571 115.61250934 -21 136 C-21 136.99 -21 137.98 -21 139 C-24.23697015 137.92100995 -24.70324392 137.416939 -26.75 134.875 C-30.43956187 130.50744171 -34.43682357 126.51466385 -38.5 122.5 C-42.93090151 118.11302184 -47.24312271 113.72207102 -51.265625 108.953125 C-54.01720925 105.85449408 -56.99657641 102.98310705 -59.9453125 100.07421875 C-63.25138024 96.79554936 -66.34271816 93.39921165 -69.36328125 89.859375 C-72.09271848 86.75863008 -75.04000663 83.87902091 -78 81 C-76.48880695 77.44769742 -74.42098607 75.18388815 -71.68969727 72.47851562 C-70.79859756 71.59079468 -69.90749786 70.70307373 -68.98939514 69.78845215 C-68.01509482 68.82768837 -67.04076446 67.86695507 -66.06640625 66.90625 C-65.06703146 65.91315032 -64.06817321 64.9195306 -63.06980896 63.92541504 C-60.44317489 61.31206654 -57.81103196 58.70434406 -55.17724609 56.09820557 C-50.96425937 51.92837425 -46.75796138 47.75182362 -42.55494499 43.57194519 C-41.08886361 42.11605131 -39.61939704 40.66364001 -38.14955139 39.21154785 C-37.25529953 38.3238269 -36.36104767 37.43610596 -35.43969727 36.52148438 C-34.25960838 35.35377502 -34.25960838 35.35377502 -33.05567932 34.16247559 C-30.96801757 32.06239957 -30.96801757 32.06239957 -29.34751892 29.71740723 C-28.68049706 28.86729065 -28.68049706 28.86729065 -28 28 C-27.34 28 -26.68 28 -26 28 C-25.67346436 27.18450684 -25.67346436 27.18450684 -25.34033203 26.35253906 C-23.54913222 23.20864082 -21.11723419 20.87052333 -18.5546875 18.359375 C-18.02481232 17.83232971 -17.49493713 17.30528442 -16.94900513 16.76226807 C-15.26232175 15.08674325 -13.56880436 13.41832278 -11.875 11.75 C-10.72740612 10.61244149 -9.58026539 9.47442564 -8.43359375 8.3359375 C-5.62761863 5.55196535 -2.81549536 2.7743424 0 0 Z " fill="#F1B82A" transform="translate(529,384)"/>
<path d="M0 0 C1.22406915 -0.00583219 2.4481383 -0.01166439 3.70930046 -0.01767331 C5.06967464 -0.01404003 6.43004832 -0.01021565 7.79042149 -0.00622082 C9.23399238 -0.00924049 10.67756168 -0.01312905 12.12112814 -0.01781338 C16.09301597 -0.02812583 20.06481387 -0.02590334 24.03670919 -0.02163279 C28.31831143 -0.01917145 32.59989168 -0.02817233 36.88148594 -0.03567028 C45.27141579 -0.04843569 53.66131366 -0.05020869 62.05125158 -0.04787002 C68.86890945 -0.0460888 75.68655759 -0.04783227 82.50421429 -0.05209446 C83.47360515 -0.05268965 84.44299601 -0.05328484 85.44176235 -0.05389806 C87.41091756 -0.05510978 89.38007277 -0.05632392 91.34922797 -0.05754044 C109.82614543 -0.06842302 128.30304465 -0.06625005 146.77996314 -0.06015559 C163.69278722 -0.05498544 180.60555371 -0.06624321 197.51836639 -0.08525381 C214.87438309 -0.10461342 232.23037252 -0.11289154 249.58640009 -0.10913056 C259.33453043 -0.1072157 269.08261175 -0.10973372 278.8307333 -0.1238451 C287.12907104 -0.13573595 295.42732958 -0.13718964 303.72566836 -0.12505493 C307.96119941 -0.11915014 312.19658543 -0.1181108 316.43210697 -0.13005733 C320.30770464 -0.14086184 324.18303527 -0.13787805 328.05862016 -0.12379565 C329.46234863 -0.12113366 330.86609766 -0.12356207 332.26980602 -0.13153151 C334.1750311 -0.14159941 336.08033113 -0.13144739 337.98554993 -0.12025452 C339.57427498 -0.12033704 339.57427498 -0.12033704 341.19509548 -0.12042123 C345.10168622 0.39155823 347.9313247 1.80885595 350.36819553 4.94197559 C351.39992502 8.41233839 351.62815366 11.69958132 351.05569553 15.25447559 C348.658796 19.3380822 346.48562038 20.82204011 342.05569553 22.25447559 C339.2166329 22.50747526 339.2166329 22.50747526 336.03798866 22.5117445 C334.21549869 22.52141784 334.21549869 22.52141784 332.35619074 22.5312866 C331.01123867 22.52834445 329.66628701 22.52520902 328.32133579 22.52190113 C326.88998851 22.52563788 325.45864326 22.53023951 324.02730125 22.53563178 C320.09381217 22.54787385 316.16040806 22.5475999 312.22690427 22.54524302 C307.98483395 22.54483517 303.74279098 22.55587091 299.50073338 22.56535816 C291.19015174 22.58197508 282.87959848 22.587468 274.56900162 22.58858292 C267.81525833 22.58953294 261.06152441 22.59364092 254.30778408 22.59998417 C235.16559169 22.61759743 216.02342173 22.62682275 196.88122118 22.62532322 C195.33309502 22.62520335 195.33309502 22.62520335 193.75369358 22.62508106 C192.72035163 22.6249993 191.68700967 22.62491754 190.62235432 22.6248333 C173.86868367 22.62402008 157.11510285 22.64316665 140.36145819 22.6713578 C123.16473579 22.70006657 105.96805725 22.71389924 88.77131027 22.71217024 C79.11424652 22.71150571 69.45727698 22.71702579 59.80023479 22.73852634 C51.57952143 22.75671162 43.358945 22.76110727 35.13822026 22.7475075 C30.9430193 22.74096476 26.74808124 22.74090752 22.55290508 22.758214 C18.71300163 22.77389218 14.87357068 22.77113545 11.03367912 22.75364573 C9.64409233 22.75056421 8.25447073 22.75425151 6.86492497 22.76536588 C-6.03345951 22.86170741 -6.03345951 22.86170741 -10.94430447 18.25447559 C-13.53074911 14.84507129 -13.30933562 11.4158307 -12.94430447 7.25447559 C-10.15352616 0.9752244 -6.57083556 0.0053782 0 0 Z " fill="#222223" transform="translate(589.9443044662476,171.7455244064331)"/>
<path d="M0 0 C1.33653625 -0.01902626 1.33653625 -0.01902626 2.70007324 -0.03843689 C4.13921082 -0.03403343 4.13921082 -0.03403343 5.60742188 -0.02954102 C7.08861511 -0.03740379 7.08861511 -0.03740379 8.59973145 -0.04542542 C10.68773457 -0.05184963 12.77577387 -0.05050348 14.86376953 -0.04199219 C18.06412949 -0.0334793 21.26270697 -0.06224336 24.46289062 -0.09399414 C26.49023384 -0.0956061 28.51758022 -0.09502872 30.54492188 -0.09204102 C31.50434692 -0.10327499 32.46377197 -0.11450897 33.45227051 -0.12608337 C34.78880676 -0.11201195 34.78880676 -0.11201195 36.15234375 -0.09765625 C36.93605347 -0.09749008 37.71976318 -0.09732391 38.52722168 -0.09715271 C41.42646195 0.61204706 42.04701981 1.88490285 43.57617188 4.40405273 C43.95928192 6.88409424 43.95928192 6.88409424 43.97058105 9.7175293 C43.98193085 10.79425903 43.99328064 11.87098877 44.00497437 12.98034668 C44.00057846 14.74469055 44.00057846 14.74469055 43.99609375 16.54467773 C44.00456329 17.7872937 44.01303284 19.02990967 44.02175903 20.31018066 C44.04115068 23.71523905 44.04690615 27.11974946 44.04501152 30.52482605 C44.04489182 33.3678871 44.05345549 36.21089686 44.06178904 39.05394363 C44.0810203 45.76052524 44.08390759 52.46698236 44.07714844 59.17358398 C44.07050374 66.09249488 44.09338921 73.01087319 44.13046217 79.92967606 C44.16114345 85.8712026 44.17252107 91.81255764 44.16862535 97.75416183 C44.1665566 101.30237626 44.17205603 104.85017602 44.19651794 108.39831543 C44.22288655 112.35356598 44.20906904 116.30811661 44.19140625 120.26342773 C44.20466949 121.43965698 44.21793274 122.61588623 44.2315979 123.82775879 C44.14949951 131.71422033 44.14949951 131.71422033 41.31019592 135.13049316 C38.68376918 136.3539319 37.08243565 136.90901559 34.21655273 136.92163086 C33.38896957 136.9342395 32.56138641 136.94684814 31.70872498 136.95983887 C30.82838089 136.95174194 29.9480368 136.94364502 29.04101562 136.93530273 C28.12534317 136.93912964 27.20967072 136.94295654 26.26625061 136.94689941 C24.33561093 136.94961502 22.40493424 136.94227847 20.47436523 136.92553711 C17.5198374 136.90409747 14.56773433 136.92536295 11.61328125 136.95092773 C9.73502068 136.94828488 7.85676162 136.94316077 5.97851562 136.93530273 C5.09614731 136.94339966 4.21377899 136.95149658 3.30467224 136.95983887 C2.06802574 136.9409259 2.06802574 136.9409259 0.80639648 136.92163086 C-0.27684654 136.9168573 -0.27684654 136.9168573 -1.38197327 136.9119873 C-4.34132163 136.17581581 -5.498313 134.73357334 -7.42382812 132.40405273 C-7.92439938 129.90560055 -7.92439938 129.90560055 -7.92503357 127.04588318 C-7.93486771 125.95929413 -7.94470184 124.87270508 -7.95483398 123.75318909 C-7.94516602 122.56603806 -7.93549805 121.37888702 -7.92553711 120.15576172 C-7.93094009 118.90178589 -7.93634308 117.64781006 -7.94190979 116.35583496 C-7.95227511 112.91968054 -7.94469447 109.48448874 -7.92819858 106.04841876 C-7.91434648 102.45301595 -7.92080821 98.85764215 -7.92433167 95.26222229 C-7.92703333 89.22551404 -7.91356095 83.18900468 -7.89038086 77.15234375 C-7.8637592 70.17104276 -7.86202792 63.19007406 -7.87376922 56.2087397 C-7.8845436 49.49391959 -7.87836345 42.7792198 -7.86421394 36.06440926 C-7.85845235 33.20599591 -7.85853812 30.34767055 -7.86327934 27.48925591 C-7.86893217 23.5003588 -7.84974313 19.51179505 -7.82788086 15.52294922 C-7.83238251 14.33377396 -7.83688416 13.14459869 -7.84152222 11.91938782 C-7.83161758 10.83561859 -7.82171295 9.75184937 -7.81150818 8.63523865 C-7.80907828 7.69190894 -7.80664839 6.74857924 -7.80414486 5.77666378 C-7.05306248 1.09102626 -4.41676944 0.03044971 0 0 Z " fill="#727173" transform="translate(1074.423828125,471.595947265625)"/>
<path d="M0 0 C2.92027014 1.97530943 5.25781252 4.33622379 7.59375 6.96484375 C8.91116315 8.58952165 8.91116315 8.58952165 11.00390625 8.35546875 C11.87015625 7.24171875 11.87015625 7.24171875 12.75390625 6.10546875 C16.93967666 0.98952714 22.41788181 -2.19804066 28.984375 -3.015625 C38.34197905 -3.20938781 44.64201712 -1.32790429 51.81640625 4.73046875 C57.57795944 11.64433257 61.57876854 17.52427529 61.3125 26.875 C59.46159929 41.75249303 48.96911303 53.041625 39.00390625 63.35546875 C38.34648437 64.06445312 37.6890625 64.7734375 37.01171875 65.50390625 C31.45687294 71.34483854 25.11147153 76.30014485 18.66308594 81.11523438 C17.05108222 82.32020478 15.46829015 83.56394859 13.88671875 84.80859375 C11.00390625 86.35546875 11.00390625 86.35546875 8.453125 85.828125 C-2.16075743 79.44625311 -11.37578841 71.19680756 -19.99609375 62.35546875 C-20.64964844 61.75863281 -21.30320312 61.16179687 -21.9765625 60.546875 C-32.31843631 50.84580576 -40.57411756 38.83724112 -41.49609375 24.35546875 C-41.22843009 16.60538918 -36.984989 9.48063067 -31.76953125 3.89453125 C-22.78284293 -3.90448901 -10.66647336 -5.44127646 0 0 Z " fill="#727173" transform="translate(363.99609375,302.64453125)"/>
<path d="M0 0 C0.97743164 -0.01740234 1.95486328 -0.03480469 2.96191406 -0.05273438 C3.75315674 -0.07166748 4.54439941 -0.09060059 5.35961914 -0.11010742 C8.559417 0.20711908 10.2514367 1.74257878 12.31738281 4.08398438 C13.58964271 6.62850417 13.46518946 8.44761205 13.49438477 11.29638672 C13.50722 12.38446625 13.52005524 13.47254578 13.53327942 14.59359741 C13.54435982 16.36387802 13.54435982 16.36387802 13.55566406 18.16992188 C13.56373581 19.37838776 13.57180756 20.58685364 13.5801239 21.8319397 C13.59397276 24.39250245 13.60469131 26.95308373 13.61254883 29.51367188 C13.62978139 33.43590066 13.67366443 37.35729112 13.71777344 41.27929688 C13.72789823 43.76366566 13.736415 46.24804163 13.74316406 48.73242188 C13.76067215 49.90856049 13.77818024 51.0846991 13.79621887 52.29647827 C13.79183052 53.93805405 13.79183052 53.93805405 13.78735352 55.61279297 C13.79615288 57.05602432 13.79615288 57.05602432 13.80513 58.52841187 C13.17418652 61.83426755 11.94416699 63.04479039 9.31738281 65.08398438 C6.45293302 65.01411975 4.94389303 64.58667496 2.70776367 62.79248047 C-2.12704915 56.85147605 0.20679715 43.64224322 0.25488281 36.45898438 C0.25939453 35.16863281 0.26390625 33.87828125 0.26855469 32.54882812 C0.28023986 29.39383062 0.29662237 26.238933 0.31738281 23.08398438 C-4.02145044 26.79323284 -8.23855974 30.45784226 -11.99511719 34.77148438 C-15.35283145 38.57997611 -18.74303955 42.34972214 -22.18261719 46.08398438 C-25.5163746 49.71098365 -28.83208526 53.35292073 -32.12011719 57.02148438 C-37.06881384 62.53373367 -42.09789196 67.9701846 -47.12988281 73.40625 C-49.67028198 76.15115929 -52.20794056 78.89859656 -54.74511719 81.64648438 C-55.24245361 82.1850708 -55.73979004 82.72365723 -56.25219727 83.27856445 C-59.11606563 86.38159456 -61.97465523 89.48935413 -64.82641602 92.60351562 C-66.17547877 94.07619187 -67.52669898 95.54689079 -68.87792969 97.01757812 C-70.88596113 99.20640386 -72.87692343 101.4097584 -74.86230469 103.61914062 C-75.92736733 104.79495948 -76.99247058 105.97074158 -78.05761719 107.14648438 C-78.54552734 107.69498047 -79.0334375 108.24347656 -79.53613281 108.80859375 C-83.24797052 112.88804124 -86.46603744 115.5624362 -91.87011719 116.83398438 C-97.99764788 115.6285685 -101.3883295 111.42320482 -105.68261719 107.08398438 C-106.5346875 106.23320312 -107.38675781 105.38242187 -108.26464844 104.50585938 C-109.95151356 102.81640307 -111.6338637 101.12242589 -113.31152344 99.42382812 C-115.99125713 96.77941217 -118.79507916 94.33358232 -121.65527344 91.88867188 C-125.50185022 88.4645515 -129.08017144 84.76148107 -132.68261719 81.08398438 C-139.22494701 86.53592589 -145.33904042 92.28441903 -150.87011719 98.77148438 C-154.12691761 102.56734142 -157.62874157 106.0702089 -161.18261719 109.58398438 C-165.23727981 113.59310178 -169.12239881 117.64262954 -172.81152344 121.99414062 C-175.82481341 125.35971502 -179.06982709 128.49088045 -182.28271484 131.66455078 C-185.00689929 134.36827187 -187.63611913 137.09148168 -190.12011719 140.02148438 C-193.282717 143.74356131 -196.71232415 147.1526451 -200.18261719 150.58398438 C-203.63199602 153.99468762 -207.04381621 157.38019922 -210.18261719 161.08398438 C-213.84050321 165.40028988 -217.88290124 169.31037931 -221.90283203 173.28466797 C-225.53685419 176.89331435 -229.01294628 180.5795562 -232.31542969 184.49804688 C-236.21884907 189.02601336 -236.21884907 189.02601336 -239.68261719 189.45898438 C-242.68261719 189.08398438 -242.68261719 189.08398438 -244.55761719 187.95898438 C-246.34213968 184.98478022 -246.33107718 183.52082236 -245.68261719 180.08398438 C-243.6730545 177.11938199 -241.16589816 174.65394182 -238.68261719 172.08398438 C-236.97288311 170.18941419 -235.26466173 168.29347824 -233.55761719 166.39648438 C-228.97737558 161.37609702 -224.22359774 156.54772867 -219.36181641 151.80004883 C-216.54286247 149.02806255 -213.87297571 146.1894048 -211.29199219 143.19335938 C-206.99867055 138.22750418 -202.32705489 133.67776235 -197.64355469 129.08398438 C-193.70240517 125.18848523 -189.98220698 121.18839758 -186.36621094 116.99023438 C-183.77087446 114.05166314 -180.98555375 111.32268962 -178.18261719 108.58398438 C-174.75223723 105.19618778 -171.35977244 101.83176349 -168.24511719 98.14648438 C-164.37372671 93.57649712 -160.06986356 89.4434757 -155.8137207 85.23681641 C-152.64511218 82.09160343 -149.57666846 78.92587058 -146.68261719 75.52148438 C-139.82682449 67.57150032 -139.82682449 67.57150032 -135.74121094 66.64257812 C-130.49412107 66.33392578 -127.97756323 68.00161449 -123.68261719 71.08398438 C-121.67350349 72.94581982 -119.74600238 74.80880005 -117.83886719 76.76757812 C-117.30668579 77.30496109 -116.77450439 77.84234406 -116.22619629 78.39601135 C-114.5401145 80.09975824 -112.8609212 81.81007819 -111.18261719 83.52148438 C-109.50346315 85.22843898 -107.82279428 86.93383018 -106.13903809 88.63624573 C-105.09653176 89.69081573 -104.05670555 90.74804494 -103.0201416 91.80845642 C-99.73955419 95.13361479 -96.3113915 98.14148956 -92.68261719 101.08398438 C-89.54218888 99.70338261 -87.53801179 98.13769595 -85.21386719 95.62695312 C-84.56643555 94.93311523 -83.91900391 94.23927734 -83.25195312 93.52441406 C-82.56907227 92.78094727 -81.88619141 92.03748047 -81.18261719 91.27148438 C-80.47137695 90.50610352 -79.76013672 89.74072266 -79.02734375 88.95214844 C-76.90691091 86.66779899 -74.79414014 84.37656787 -72.68261719 82.08398438 C-71.58406458 80.8974107 -70.48514575 79.7111759 -69.38574219 78.52539062 C-66.95766171 75.90352154 -64.53660528 73.27529104 -62.11816406 70.64453125 C-59.64337144 67.95424648 -57.16257775 65.26950424 -54.68261719 62.58398438 C-53.68651665 61.50456355 -52.6904229 60.42513647 -51.69433594 59.34570312 C-49.65697422 57.13839531 -47.61770018 54.93287459 -45.57714844 52.72851562 C-40.42350246 47.15821612 -35.30746714 41.56109954 -30.25292969 35.90039062 C-28.14589579 33.59161944 -26.01475268 31.31492119 -23.86230469 29.04882812 C-23.18466064 28.33380127 -22.5070166 27.61877441 -21.80883789 26.88208008 C-20.45468268 25.45615609 -19.09656792 24.03397978 -17.73413086 22.6159668 C-17.10998291 21.95830322 -16.48583496 21.30063965 -15.84277344 20.62304688 C-15.28211182 20.0373291 -14.7214502 19.45161133 -14.14379883 18.84814453 C-12.63092561 17.02157446 -11.65514725 15.2397051 -10.68261719 13.08398438 C-11.78774658 13.10493164 -12.89287598 13.12587891 -14.03149414 13.14746094 C-18.12950699 13.21983078 -22.22746333 13.26577273 -26.32592773 13.30371094 C-28.10011288 13.32383341 -29.87423165 13.35113467 -31.64819336 13.38574219 C-34.19759485 13.4342343 -36.74612014 13.45694591 -39.29589844 13.47460938 C-40.08974442 13.49525452 -40.88359039 13.51589966 -41.70149231 13.53717041 C-47.18717353 13.53940844 -47.18717353 13.53940844 -49.71069336 11.21972656 C-50.68261719 9.08398438 -50.68261719 9.08398438 -50.62011719 6.52148438 C-49.41794078 3.39582572 -48.63068862 2.7006318 -45.68261719 1.08398438 C-42.6236995 0.60728327 -39.58276256 0.59514197 -36.49121094 0.57226562 C-35.59072525 0.55431442 -34.69023956 0.53636322 -33.76246643 0.51786804 C-30.88173192 0.46377829 -28.00115748 0.42995964 -25.12011719 0.39648438 C-23.2079846 0.36329044 -21.29587407 0.32879887 -19.38378906 0.29296875 C-14.91013456 0.21262636 -10.43666234 0.15658632 -5.96252441 0.11181641 C-3.97481492 0.08755139 -1.98734086 0.04532254 0 0 Z " fill="#F1BB2A" transform="translate(1175.6826171875,322.916015625)"/>
<path d="M0 0 C1.23429294 -0.00967334 1.23429294 -0.00967334 2.49352109 -0.0195421 C3.39214986 -0.01644489 4.29077863 -0.01334769 5.21663857 -0.01015663 C6.17545767 -0.01468774 7.13427678 -0.01921886 8.12215102 -0.02388728 C11.34336224 -0.03657389 14.56440532 -0.03490815 17.78563881 -0.03325844 C20.09173743 -0.039241 22.39783403 -0.04604592 24.70392799 -0.05361366 C30.97456584 -0.07130803 37.24514914 -0.07597048 43.51580954 -0.07724524 C48.74706655 -0.07914248 53.97831079 -0.08649797 59.2095629 -0.09358943 C70.84438561 -0.10895274 82.47918168 -0.11492617 94.11401372 -0.11357872 C94.81211972 -0.11349881 95.51022573 -0.1134189 96.22948647 -0.11333656 C97.27792437 -0.11321392 97.27792437 -0.11321392 98.34754284 -0.1130888 C109.67587989 -0.11227585 121.004084 -0.13141575 132.3323826 -0.1596133 C143.96489745 -0.18833955 155.59734134 -0.20178744 167.22989237 -0.20042574 C173.76043052 -0.19991526 180.29081822 -0.20564614 186.8213253 -0.22678185 C192.96253658 -0.24611443 199.10345314 -0.24632264 205.24467468 -0.23174858 C207.49974242 -0.22965324 209.75482837 -0.23440431 212.00986481 -0.2464695 C215.08638093 -0.26186486 218.1618736 -0.25265108 221.23836708 -0.23720741 C222.1325344 -0.24749454 223.02670172 -0.25778167 223.94796503 -0.26838052 C229.54235777 -0.20624269 232.53670789 0.63896159 236.85448647 4.25726891 C239.4455593 7.67277401 239.35736953 11.09052354 238.85448647 15.25726891 C237.06972406 18.22966131 235.00240592 20.68330918 231.85448647 22.25726891 C228.78142689 22.36438938 225.73058225 22.40949192 222.65691566 22.41116905 C221.20899962 22.41774243 221.20899962 22.41774243 219.73183274 22.42444861 C216.47681697 22.43787084 213.22182829 22.44402314 209.96679115 22.45014 C207.64128432 22.45803824 205.31577872 22.46630701 202.99027443 22.47492027 C195.33564874 22.50117143 187.68101748 22.51645047 180.02636147 22.53070641 C177.3946501 22.53606471 174.76293878 22.54144222 172.13122749 22.54683876 C161.18689269 22.56847154 150.24255921 22.587361 139.29820824 22.59846115 C136.45742984 22.6013909 133.61665149 22.60435255 130.77587318 22.60736656 C130.06980235 22.60811261 129.36373151 22.60885866 128.63626459 22.60962732 C117.19785054 22.62228145 105.75959192 22.65550469 94.32125053 22.69716839 C82.58032835 22.73958399 70.83948574 22.76315575 59.09848714 22.76838171 C52.50526925 22.77204093 45.91231477 22.7841232 39.31917 22.81648445 C33.11722036 22.84648872 26.91569457 22.85290395 20.7136879 22.84110069 C18.43603437 22.84087932 16.15836162 22.84923643 13.88077545 22.86675453 C10.77333363 22.88935646 7.66744038 22.88119201 4.55999184 22.86527061 C3.20502165 22.88609375 3.20502165 22.88609375 1.82267833 22.90733755 C-2.46588006 22.85312303 -5.28132098 22.59501627 -8.69302559 19.85964966 C-11.79688813 16.56608316 -12.17304721 14.8363136 -12.38379478 10.47601891 C-11.99997545 6.9020946 -10.51311079 4.88082262 -8.14551353 2.25726891 C-5.34138883 0.55573499 -3.26223485 0.00648143 0 0 Z " fill="#212123" transform="translate(588.1455135345459,236.74273109436035)"/>
<path d="M0 0 C0.84767944 -0.01260864 1.69535889 -0.02521729 2.56872559 -0.03820801 C3.92979431 -0.02606262 3.92979431 -0.02606262 5.31835938 -0.01367188 C6.72728455 -0.01941223 6.72728455 -0.01941223 8.16467285 -0.02526855 C10.14836704 -0.02798764 12.13209708 -0.02062671 14.11572266 -0.00390625 C17.15152953 0.01750351 20.18496983 -0.00370794 23.22070312 -0.02929688 C25.14909376 -0.0266536 27.07748293 -0.02152862 29.00585938 -0.01367188 C29.91323853 -0.0217688 30.82061768 -0.02986572 31.75549316 -0.03820801 C33.02701233 -0.01929504 33.02701233 -0.01929504 34.32421875 0 C35.43863342 0.00477356 35.43863342 0.00477356 36.57556152 0.00964355 C39.68086075 0.76557581 40.79647148 1.93483703 42.66210938 4.51757812 C43.06215044 7.17223116 43.21998916 9.4150553 43.19555664 12.06835938 C43.20848 13.20076553 43.20848 13.20076553 43.22166443 14.35604858 C43.24433947 16.84774201 43.23758372 19.33831222 43.22851562 21.83007812 C43.23375031 23.56356135 43.24002622 25.29704171 43.24729919 27.03051758 C43.257706 30.66208304 43.2531377 34.29325673 43.23852539 37.92480469 C43.22133076 42.57915687 43.24483888 47.23227535 43.28001499 51.88648987 C43.30197208 55.46561873 43.3005518 59.04445156 43.29224968 62.62362671 C43.29142934 64.3396439 43.29830851 66.05568265 43.31302071 67.77163696 C43.330438 70.170796 43.31595129 72.5677276 43.29321289 74.96679688 C43.30490509 75.6754892 43.31659729 76.38418152 43.3286438 77.11434937 C43.2584679 80.75249382 42.90294976 82.25916715 40.38841248 84.95715332 C37.72895792 86.47931674 36.41403825 87.02154219 33.41015625 87.03515625 C32.60582153 87.04776489 31.80148682 87.06037354 30.97277832 87.07336426 C29.68977844 87.06121887 29.68977844 87.06121887 28.38085938 87.04882812 C27.48975464 87.05265503 26.5986499 87.05648193 25.68054199 87.0604248 C23.80117662 87.06314029 21.92177323 87.05580453 20.04248047 87.0390625 C17.17134064 87.01764698 14.30270294 87.03887573 11.43164062 87.06445312 C9.60220804 87.06180978 7.772777 87.05668467 5.94335938 87.04882812 C4.6603595 87.06097351 4.6603595 87.06097351 3.35144043 87.07336426 C2.54710571 87.06075562 1.742771 87.04814697 0.9140625 87.03515625 C-0.13920227 87.03038269 -0.13920227 87.03038269 -1.21374512 87.0255127 C-4.47458615 86.24576673 -6.05734095 84.96450605 -8.33789062 82.51757812 C-8.83890254 79.79372061 -9.01389515 77.6883548 -8.96899414 74.96679688 C-8.97614944 74.21185944 -8.98330475 73.456922 -8.99067688 72.67910767 C-9.00756639 70.18714623 -8.98816189 67.69698333 -8.96679688 65.20507812 C-8.96762556 63.47159679 -8.97008493 61.73811554 -8.97410583 60.00463867 C-8.97696399 56.37296881 -8.96226147 52.74191563 -8.93481445 49.11035156 C-8.90073121 44.45610652 -8.90674946 39.80296421 -8.92547703 35.14866638 C-8.93604761 31.56952734 -8.92710876 27.99064474 -8.91209221 24.41152954 C-8.90691033 22.69553387 -8.90739228 20.97951142 -8.91363716 19.26351929 C-8.91909027 16.86454731 -8.89871362 14.46715169 -8.87133789 12.06835938 C-8.87786377 11.35966705 -8.88438965 10.65097473 -8.89111328 9.92080688 C-8.82708677 6.61985624 -8.52868127 4.78170379 -6.57566833 2.07800293 C-4.10802345 0.35728944 -2.9701477 0.01272253 0 0 Z " fill="#727173" transform="translate(995.337890625,521.482421875)"/>
<path d="M0 0 C7 6 7 6 10.25390625 8.82421875 C16.64814773 14.36653428 23.13214695 19.73844332 29.81860352 24.92456055 C33.79767133 28.02210838 37.6706897 31.21956333 41.5 34.5 C46.61201428 38.87926349 51.84915835 43.06808976 57.16064453 47.20239258 C61.21108762 50.36049226 65.14663042 53.6053649 69 57 C67.52443804 60.54032027 65.60044984 62.45462768 62.69946289 64.92944336 C56.74893583 70.15658789 51.17994033 75.70516525 45.60229301 81.32254219 C43.767997 83.16978964 41.93043007 85.01372954 40.09205627 86.85691833 C36.20434815 90.75593968 32.32065303 94.6589428 28.4375 98.5625 C23.90338012 103.12023437 19.36762321 107.67631553 14.8276844 112.22825432 C13.01470153 114.04773181 11.20474454 115.87018347 9.3948822 117.69276428 C8.29522066 118.79605435 7.19542073 119.8992065 6.09545898 121.00219727 C5.59112335 121.51169922 5.08678772 122.02120117 4.56716919 122.54614258 C3.39693575 123.7165561 2.20119698 124.86138683 1 126 C0.67 126 0.34 126 0 126 C0 84.42 0 42.84 0 0 Z " fill="#F2B82A" transform="translate(1046,106)"/>
<path d="M0 0 C0 40.26 0 80.52 0 122 C-4 122 -4 122 -5.88568115 120.60879517 C-6.53409973 119.95752655 -7.18251831 119.30625793 -7.85058594 118.63525391 C-8.59105164 117.90094147 -9.33151733 117.16662903 -10.09442139 116.4100647 C-10.88310608 115.60700897 -11.67179077 114.80395325 -12.484375 113.9765625 C-13.29996887 113.16005219 -14.11556274 112.34354187 -14.95587158 111.50228882 C-16.67861739 109.77349749 -18.3964962 108.03984464 -20.10986328 106.30175781 C-22.7428231 103.63227645 -25.39144582 100.97915591 -28.04296875 98.328125 C-29.71188498 96.6493789 -31.37988555 94.9697219 -33.046875 93.2890625 C-34.24204742 92.09055161 -34.24204742 92.09055161 -35.46136475 90.86782837 C-36.1892218 90.12721161 -36.91707886 89.38659485 -37.66699219 88.62353516 C-38.31222839 87.97067535 -38.9574646 87.31781555 -39.62225342 86.64517212 C-41 85 -41 85 -41 83 C-41.66 83 -42.32 83 -43 83 C-44.71230248 81.38025441 -46.37163262 79.7041054 -48 78 C-49.3921875 76.6696875 -49.3921875 76.6696875 -50.8125 75.3125 C-53 73 -53 73 -53 71 C-53.81210938 70.67322266 -53.81210938 70.67322266 -54.640625 70.33984375 C-57.80505765 68.54282322 -60.20610546 66.12308677 -62.75 63.5625 C-63.25660156 63.07201172 -63.76320313 62.58152344 -64.28515625 62.07617188 C-65.5859308 60.77715039 -66.79988368 59.39254877 -68 58 C-68 57.01 -68 56.02 -68 55 C-66.26953125 53.34375 -66.26953125 53.34375 -63.8125 51.5 C-59.69133461 48.32942691 -55.69291568 45.07329707 -51.75 41.6875 C-47.29462372 37.88138644 -42.75794427 34.21234161 -38.125 30.625 C-30.49751479 24.70360688 -23.2577308 18.36472975 -16 12 C-13.4017309 9.72229243 -10.79708089 7.45223373 -8.1875 5.1875 C-7.59453125 4.66551025 -7.0015625 4.14352051 -6.390625 3.60571289 C-2.22712565 0 -2.22712565 0 0 0 Z " fill="#F1B729" transform="translate(1249,108)"/>
<path d="M0 0 C4.25289349 3.00275758 7.83076214 6.75549922 11.48046875 10.4453125 C12.19976563 11.156875 12.9190625 11.8684375 13.66015625 12.6015625 C14.34851563 13.2925 15.036875 13.9834375 15.74609375 14.6953125 C16.36774414 15.31921875 16.98939453 15.943125 17.62988281 16.5859375 C21.05913022 20.56963919 21.68224998 23.94473771 21.5390625 29.07421875 C20.66261604 35.80843399 17.03455192 40.13106189 11.9140625 44.31640625 C8.85782048 46.36571935 6.0006039 46.65325018 2.41796875 46.7578125 C1.17080078 46.81388672 1.17080078 46.81388672 -0.1015625 46.87109375 C-7.3451343 45.71509181 -12.58686832 38.96162751 -17.51953125 34.0078125 C-18.67001953 32.88149414 -18.67001953 32.88149414 -19.84375 31.73242188 C-20.57722656 30.99958984 -21.31070313 30.26675781 -22.06640625 29.51171875 C-22.72995117 28.85115479 -23.39349609 28.19059082 -24.07714844 27.51000977 C-26.75660859 24.24108385 -27.67267843 21.30084576 -28.14453125 17.1328125 C-27.50007501 10.79565949 -25.07048712 6.32250761 -20.33203125 2.0703125 C-13.8563593 -2.95415179 -7.38535256 -4.14579735 0 0 Z " fill="#ECECEC" transform="translate(736.76953125,544.5546875)"/>
<path d="M0 0 C4.86087727 2.994392 8.58485784 6.91864719 12.56640625 10.98046875 C13.38109375 11.79193359 14.19578125 12.60339844 15.03515625 13.43945312 C23.57961674 22.06171913 23.57961674 22.06171913 23.69140625 28.35546875 C23.51970181 34.18388063 21.40008971 37.94670772 17.375 41.99609375 C12.41519872 46.49005734 9.40122519 48.097467 2.546875 48.37109375 C-4.84594302 47.28353383 -9.46504349 41.68054882 -14.43359375 36.60546875 C-15.20058594 35.84169922 -15.96757813 35.07792969 -16.7578125 34.29101562 C-21.66232325 29.33909748 -24.94583283 26.00959476 -25.12109375 18.79296875 C-24.98873301 12.17493156 -22.73420268 8.1012042 -18.12109375 3.4765625 C-12.70765074 -1.27373374 -6.75270017 -2.40816818 0 0 Z " fill="#ECECEC" transform="translate(678.68359375,599.95703125)"/>
<path d="M0 0 C0.94488281 -0.02578125 1.88976562 -0.0515625 2.86328125 -0.078125 C8.07220978 0.52706172 11.43470342 3.74295968 15.04296875 7.33984375 C15.82994141 8.12423828 16.61691406 8.90863281 17.42773438 9.71679688 C18.23533203 10.53212891 19.04292969 11.34746094 19.875 12.1875 C20.69419922 12.99896484 21.51339844 13.81042969 22.35742188 14.64648438 C23.53208008 15.82500977 23.53208008 15.82500977 24.73046875 17.02734375 C25.44227295 17.74140381 26.15407715 18.45546387 26.88745117 19.19116211 C30.51257238 23.33745902 31.09252898 26.6445928 30.92578125 32.015625 C30.23275507 38.51416561 26.25487607 41.84400119 21.52734375 45.83203125 C18.41586446 48.23005032 16.32617422 48.46156447 12.4375 48.5625 C11.50421875 48.59988281 10.5709375 48.63726563 9.609375 48.67578125 C2.18596366 47.59402746 -3.01453313 40.88211339 -8.0625 35.8125 C-9.21298828 34.68618164 -9.21298828 34.68618164 -10.38671875 33.53710938 C-11.12019531 32.80427734 -11.85367188 32.07144531 -12.609375 31.31640625 C-13.27291992 30.65584229 -13.93646484 29.99527832 -14.62011719 29.31469727 C-17.29957734 26.04577135 -18.21564718 23.10553326 -18.6875 18.9375 C-18.03156347 12.48745742 -15.56427434 8.06822375 -10.6875 3.8125 C-7.00629445 0.86271302 -4.75663632 0.07723902 0 0 Z " fill="#ECECEC" transform="translate(699.3125,570.75)"/>
<path d="M0 0 C5.58933269 3.03818499 9.80474547 7.50589652 14.25 12 C14.96929688 12.7115625 15.68859375 13.423125 16.4296875 14.15625 C17.11804688 14.8471875 17.80640625 15.538125 18.515625 16.25 C19.13727539 16.87390625 19.75892578 17.4978125 20.39941406 18.140625 C23.96763423 22.28576911 24.55995348 25.98159977 24.44140625 31.33203125 C23.54134824 36.77220489 20.42421227 40.8117208 16.39453125 44.44921875 C11.76465775 47.58345615 6.42729428 47.96853644 1 47 C-4.62268193 43.98531489 -8.71009994 39.65775337 -13.1875 35.1875 C-14.00669922 34.39279297 -14.82589844 33.59808594 -15.66992188 32.77929688 C-16.45302734 32.00005859 -17.23613281 31.22082031 -18.04296875 30.41796875 C-18.75477295 29.71438232 -19.46657715 29.0107959 -20.19995117 28.28588867 C-23.09192428 24.61336131 -24.02338265 21.26266303 -23.9375 16.625 C-22.24991115 10.09965644 -18.83311611 4.55502024 -13.08984375 0.84765625 C-8.87280343 -0.86280683 -4.41755846 -0.91116071 0 0 Z " fill="#ECECEC" transform="translate(649,629)"/>
<path d="M0 0 C25.53004072 0 45.41356677 12.256876 63.5625 29.3125 C64.17738281 29.85132812 64.79226563 30.39015625 65.42578125 30.9453125 C79.26912798 43.61117916 88.35191999 64.85115478 89.5625 83.3125 C89.62617336 86.98106488 89.62319261 90.64396888 89.5625 94.3125 C86.30946956 95.93901522 83.17024398 95.42703156 79.5625 95.3125 C78.00101192 93.75101192 78.21652788 92.06178388 77.984375 89.89453125 C75.61909609 69.42777461 70.19436349 54.10773762 56.5625 38.3125 C55.98113281 37.63445312 55.39976562 36.95640625 54.80078125 36.2578125 C40.56098875 20.87512993 22.05865842 14.33115498 1.77783203 11.60400391 C0.72966309 11.46140137 -0.31850586 11.31879883 -1.3984375 11.171875 C-2.34509277 11.05295898 -3.29174805 10.93404297 -4.26708984 10.81152344 C-4.9833252 10.6468457 -5.69956055 10.48216797 -6.4375 10.3125 C-7.92856457 7.33037087 -7.55691467 4.59640342 -7.4375 1.3125 C-5.55434083 -0.57065917 -2.51736562 0.0506137 0 0 Z " fill="#F1BB2A" transform="translate(384.4375,36.6875)"/>
<path d="M0 0 C17.34499632 1.43501768 33.53731569 6.57904888 45.3828125 20.08203125 C53.62371024 30.8081172 59.59668117 42.6199821 59.4453125 56.39453125 C59.43628906 57.46316406 59.42726563 58.53179687 59.41796875 59.6328125 C59.40636719 60.44105469 59.39476562 61.24929687 59.3828125 62.08203125 C56.62031214 63.46328143 54.43550151 63.27282431 51.3828125 63.08203125 C49.03508867 60.73430742 48.98808445 59.22419209 48.5480957 56.02929688 C46.84296799 43.85677878 42.11599641 31.12057354 32.71484375 22.7578125 C22.19269913 15.1966734 12.7090486 12.07323308 -0.078125 11.42578125 C-2.6171875 11.08203125 -2.6171875 11.08203125 -4.6171875 9.08203125 C-4.8671875 5.58203125 -4.8671875 5.58203125 -4.6171875 2.08203125 C-2.6171875 0.08203125 -2.6171875 0.08203125 0 0 Z " fill="#F1BB2A" transform="translate(381.6171875,68.91796875)"/>
<path d="M0 0 C4.38299083 2.19149542 7.20074724 4.40190962 9 9 C9.67644992 13.98568644 9.533182 17.82699959 7.4375 22.4375 C4.09858408 25.94764238 0.92699939 27.86412382 -4.01953125 28.09375 C-8.88741523 27.7214453 -12.28808872 26.28029369 -16 23 C-18.66491682 18.52981694 -19.53744497 14.97908419 -18.64453125 9.92578125 C-17.31026044 5.93914179 -14.72010861 3.03561178 -11.10546875 0.859375 C-7.43733014 -0.63782443 -3.88732661 -0.5466553 0 0 Z " fill="#F0BA29" transform="translate(395,514)"/>
<path d="M0 0 C4.77665094 2.38832547 7.71551115 5.15688363 10 10 C10.29228188 15.16973573 9.41637186 19.99459851 6 24 C1.50402346 27.03217022 -2.70397845 27.95138112 -8 27 C-12.35944153 24.77915243 -15.16830464 22.57923841 -17 18 C-17.71062194 13.26252043 -17.47089401 9.94178801 -15.3125 5.625 C-10.89229525 0.60747028 -6.72715348 -1.17626063 0 0 Z " fill="#727173" transform="translate(854,546)"/>
<path d="M0 0 C3.06881816 1.71904752 5.40357084 3.80714167 7 7 C7.51512617 11.09157355 7.94367269 15.23589546 5.953125 18.95703125 C3.64852308 21.74288828 1.68567303 23.76400578 -1.953125 24.2734375 C-6.15148712 24.45907936 -9.07490427 24.45668199 -12.4375 21.75 C-15.5885381 18.36839813 -16.78147047 16.67539309 -17.375 12.125 C-16.80558393 7.37986605 -14.44116002 4.60128892 -11.3125 1.125 C-7.59020323 -0.68584708 -4.04418256 -0.76965412 0 0 Z " fill="#747274" transform="translate(1059,320)"/>
<path d="M0 0 C3.96220871 3.3961789 4.49510792 4.90778181 5 10.125 C4.88735068 14.43785966 3.45117939 16.95279071 0.625 20.25 C-2.30144897 22.54935277 -5.58606937 22.78298827 -9.2734375 22.70703125 C-13.15425451 21.86306175 -15.87071469 19.23336598 -18.375 16.25 C-19.58143566 12.63069302 -19.69768559 10.05768995 -19.375 6.25 C-17.76179279 3.19642921 -16.34439098 1.01166434 -13.625 -1.125 C-8.40862133 -2.57399408 -4.72603481 -2.45053657 0 0 Z " fill="#747274" transform="translate(1014.375,34.75)"/>
<path d="M0 0 C0.66 0 1.32 0 2 0 C2 40.26 2 80.52 2 122 C-2 122 -2 122 -4.359375 120.03125 C-5.14828125 119.1959375 -5.9371875 118.360625 -6.75 117.5 C-7.54921875 116.6646875 -8.3484375 115.829375 -9.171875 114.96875 C-9.77515625 114.3190625 -10.3784375 113.669375 -11 113 C-10.505 112.01 -10.505 112.01 -10 111 C-7.03 113.97 -4.06 116.94 -1 120 C-0.67 81.39 -0.34 42.78 0 3 C-1.98 3.99 -1.98 3.99 -4 5 C-2.71937515 3.2925002 -1.38232443 1.62626404 0 0 Z " fill="#FCCB2A" transform="translate(1247,108)"/>
<path d="M0 0 C0.33 0 0.66 0 1 0 C2.21469888 5.69050495 2.13362786 11.26680061 2.11352539 17.05419922 C2.11367142 18.15722885 2.11381744 19.26025848 2.1139679 20.39671326 C2.11327274 24.03272486 2.10549891 27.66868487 2.09765625 31.3046875 C2.09579066 33.82959973 2.09436742 36.35451233 2.09336853 38.87942505 C2.08994404 44.83974084 2.08206719 50.80004015 2.07201904 56.76034749 C2.06082437 63.54874667 2.05533901 70.33714676 2.05032361 77.12555289 C2.03988364 91.08371212 2.02230514 105.04185505 2 119 C2.66 119.33 3.32 119.66 4 120 C2.68 120.99 1.36 121.98 0 123 C0 82.41 0 41.82 0 0 Z " fill="#FBD12A" transform="translate(1046,109)"/>
<path d="M0 0 C1.6097168 0.00966797 1.6097168 0.00966797 3.25195312 0.01953125 C4.9312793 0.04466797 4.9312793 0.04466797 6.64453125 0.0703125 C7.77568359 0.07933594 8.90683594 0.08835937 10.07226562 0.09765625 C12.86739953 0.12124388 15.6621097 0.1541595 18.45703125 0.1953125 C18.12703125 1.1853125 17.79703125 2.1753125 17.45703125 3.1953125 C14.6236316 3.22255673 11.79050008 3.24226839 8.95703125 3.2578125 C7.76980469 3.27038086 7.76980469 3.27038086 6.55859375 3.28320312 C1.42941408 3.30422435 -3.46632981 2.93468537 -8.54296875 2.1953125 C-5.14399202 -0.07067198 -3.97977702 -0.04211404 0 0 Z " fill="#E3E3E3" transform="translate(681.54296875,483.8046875)"/>
<path d="M0 0 C1 2 1 2 0.9375 5.375 C0.99551686 8.7399781 1.23213916 10.23771743 3 13 C3.66 11.68 4.32 10.36 5 9 C5.66 12.3 6.32 15.6 7 19 C2.95459947 16.92263216 0.72287219 15.26184172 -1 11 C-1.28683216 7.64667127 -1.32275454 4.35168174 -1 1 C-0.67 0.67 -0.34 0.34 0 0 Z " fill="#F2F2F2" transform="translate(616,635)"/>
<path d="M0 0 C0.66 0.66 1.32 1.32 2 2 C1 3 1 3 -1.06640625 3.09765625 C-1.89011719 3.08605469 -2.71382812 3.07445312 -3.5625 3.0625 C-4.38878906 3.05347656 -5.21507812 3.04445313 -6.06640625 3.03515625 C-6.70449219 3.02355469 -7.34257813 3.01195312 -8 3 C-8 2.34 -8 1.68 -8 1 C-5.23749964 -0.38125018 -3.05268901 -0.19079306 0 0 Z " fill="#E0E0DF" transform="translate(731,542)"/>
<path d="M0 0 C0 3 0 3 -1.3125 4.60546875 C-1.869375 5.12753906 -2.42625 5.64960938 -3 6.1875 C-3.556875 6.71730469 -4.11375 7.24710937 -4.6875 7.79296875 C-5.120625 8.19128906 -5.55375 8.58960938 -6 9 C-6.99 8.67 -7.98 8.34 -9 8 C-6.14723863 5.06799526 -3.34920216 2.35684596 0 0 Z " fill="#7B7A7C" transform="translate(382,304)"/>
<path d="M0 0 C0.66 0 1.32 0 2 0 C2.625 3.375 2.625 3.375 3 7 C2.34 7.66 1.68 8.32 1 9 C0 8 0 8 -0.09765625 6.15234375 C-0.06510417 4.1015625 -0.03255208 2.05078125 0 0 Z " fill="#E0DFDF" transform="translate(719,465)"/>
<path d="M0 0 C0.99 0 1.98 0 3 0 C3 0.66 3 1.32 3 2 C4.98 1.67 6.96 1.34 9 1 C9 1.99 9 2.98 9 4 C6.03 3.67 3.06 3.34 0 3 C0 2.01 0 1.02 0 0 Z " fill="#E2E1E2" transform="translate(585,343)"/>
<path d="M0 0 C0.66 0.33 1.32 0.66 2 1 C-1.96 4.465 -1.96 4.465 -6 8 C-6.66 7.67 -7.32 7.34 -8 7 C-5.36 4.69 -2.72 2.38 0 0 Z " fill="#F6D030" transform="translate(1191,155)"/>
<path d="M0 0 C0.66 0.99 1.32 1.98 2 3 C-1 5 -1 5 -3.1875 4.625 C-3.785625 4.41875 -4.38375 4.2125 -5 4 C-3.35 2.68 -1.7 1.36 0 0 Z " fill="#E3B528" transform="translate(1186,383)"/>
<path d="M0 0 C0.66 0.33 1.32 0.66 2 1 C0.71937515 2.7074998 -0.61767557 4.37373596 -2 6 C-2.66 6 -3.32 6 -4 6 C-4.33 6.66 -4.66 7.32 -5 8 C-4.45773019 4.20411134 -2.79872437 2.52788007 0 0 Z " fill="#7E7D7F" transform="translate(1001,34)"/>
</svg>
